# xmcd
#
# Track frame offsets:
#	150
#	13668
#	30009
#	52122
#	68375
#	83112
#	108781
#	123492
#	145013
#	160251
#	171028
#	189752
#
# Disc length: 2743 seconds
#
# Revision: 5
# Processed by: cddbd v1.5.2PL0 Copyright (c) Steve Scherf et al.
# Submitted via: EasyCDDAExtractor 16.0.1.1
#
DISCID=860ab50c
DTITLE=Debbie Davies - Key To Love_Tribute To John Mayall
DYEAR=2003
DGENRE=Blues
TTITLE0=Light The Fuse
TTITLE1=Chicago Line (W/ James Cotton)
TTITLE2=Hard Road (W/ Mick Taylor)
TTITLE3=Room To Move (W/ James Cotton)
TTITLE4=Takin' It All To Vegas
TTITLE5=Dream About The Blues
TTITLE6=Key To Love
TTITLE7=I Should Know Better
TTITLE8=I'm A Sucker For Love
TTITLE9=Steppin' Out
TTITLE10=Nature's Disappearing
TTITLE11=I Just Came To Play
EXTD=YEAR: 2003
EXTT0=
EXTT1=
EXTT2=
EXTT3=
EXTT4=
EXTT5=
EXTT6=
EXTT7=
EXTT8=
EXTT9=
EXTT10=
EXTT11=
PLAYORDER=
